<svg xmlns="http://www.w3.org/2000/svg" xmlns:xlink="http://www.w3.org/1999/xlink" viewBox="0 0 225 228.32"><defs><style>.cls-1{isolation:isolate;}.cls-2{opacity:0.4;mix-blend-mode:multiply;fill:url(#linear-gradient);}.cls-3{fill:#212683;}.cls-4{fill:#f2a7c5;stroke:#1f2687;}.cls-4,.cls-5,.cls-6{stroke-miterlimit:10;stroke-width:6px;}.cls-5{fill:#cec09f;}.cls-5,.cls-6{stroke:#212683;}.cls-6{fill:none;}</style><linearGradient id="linear-gradient" y1="114.16" x2="223.44" y2="114.16" gradientUnits="userSpaceOnUse"><stop offset="0" stop-color="#efa6c2"/><stop offset="1" stop-color="#96cdbd"/></linearGradient></defs><title>Love</title><g class="cls-1"><g id="Layer_2" data-name="Layer 2"><g id="Layer_1-2" data-name="Layer 1"><path class="cls-2" d="M184.76,98.81a53.78,53.78,0,1,0-72.61-77.06,68.07,68.07,0,1,0-21.07,116,68.09,68.09,0,1,0,93.69-38.95Z"/><path class="cls-3" d="M221.6,26.95h-2.76V24.19a3.4,3.4,0,0,0-6.79,0v2.76h-2.76a3.4,3.4,0,0,0,0,6.79h2.76V36.5a3.4,3.4,0,0,0,6.79,0V33.74h2.76a3.4,3.4,0,0,0,0-6.79Z"/><path class="cls-3" d="M202.5,178.87h-2.76v-2.76a3.4,3.4,0,0,0-6.79,0v2.76H190.2a3.4,3.4,0,0,0,0,6.79H193v2.76a3.4,3.4,0,0,0,6.79,0v-2.76h2.76a3.4,3.4,0,0,0,0-6.79Z"/><path class="cls-3" d="M51.1,188.42H48.34v-2.76a3.4,3.4,0,0,0-6.79,0v2.76H38.79a3.4,3.4,0,0,0,0,6.79h2.76V198a3.4,3.4,0,0,0,6.79,0v-2.76H51.1a3.4,3.4,0,0,0,0-6.79Z"/><path class="cls-4" d="M79.18,143.81,118.51,189a8.19,8.19,0,0,0,12.37,0l48.25-55.43,20.73-23.82c14.73-16.94,12-41.86-6-55.64a43.74,43.74,0,0,0-26.63-8.91,43.23,43.23,0,0,0-32.7,14.54,13,13,0,0,1-19.66,0A41.69,41.69,0,0,0,100,48.87a44.69,44.69,0,0,0-17.81-3.68A43.74,43.74,0,0,0,55.53,54.1c-18,13.78-20.73,38.7-6,55.64L66,128.66"/><rect class="cls-5" x="97.62" y="92.76" width="12.65" height="21.76" rx="6.33" ry="6.33"/><rect class="cls-5" x="139.11" y="92.76" width="12.65" height="21.76" rx="6.33" ry="6.33"/><rect class="cls-5" x="118.37" y="80.42" width="12.65" height="21.76" rx="6.33" ry="6.33"/><path class="cls-5" d="M142.65,135.18,135.59,123a12.58,12.58,0,0,0-21.8,0l-7.06,12.22-.13.23c-3.87,7,3.84,14.55,11,10.94a15.78,15.78,0,0,1,14.16,0c7.16,3.61,14.88-3.91,11-10.94Z"/><circle class="cls-3" cx="73.06" cy="136.25" r="3.19"/><path class="cls-6" d="M81.37,61.58h-.49A21.84,21.84,0,0,0,59,83.42h0"/></g></g></g></svg>